<svg xmlns="http://www.w3.org/2000/svg" viewBox="0 0 1320 211.71"><title>Logo</title><g id="Layer_2" data-name="Layer 2"><g id="Layer_1-2" data-name="Layer 1"><path d="M949.7,110.22h96.68V165H949.7Z"/><polygon points="384.41 211.71 384.41 173.39 271.62 173.39 271.62 143.74 367.01 143.74 367.01 88.95 271.62 88.95 271.62 62.52 380.22 62.52 380.22 5.16 196.84 5.16 196.84 211.71 384.41 211.71"/><path d="M467.48,211.71l7.81-20.27H561l7.81,20.27h77.65L556.19,5.16H481.42l-90.3,206.55ZM518.16,79.93l21.91,56.72H496.24Z"/><polygon points="723.45 211.71 723.45 131.49 772.44 210.45 805.96 210.45 854.95 127.95 855.47 211.71 924.83 211.71 924.24 5.16 861.71 5.16 790.17 125.37 716.68 5.16 654.16 5.16 654.16 211.71 723.45 211.71"/><path d="M1112.53,211.71h160.34a111.89,111.89,0,0,0,30.69-33Q1320,151.8,1320,118t-16.44-60.75q-16.43-26.91-45.44-42.06T1192.7,0q-36.42,0-65.43,15.15t-45.44,42.06Q1065.39,84.12,1065.4,118t16.43,60.75A112.05,112.05,0,0,0,1112.53,211.71Zm36.34-123.57a49.61,49.61,0,0,1,18.21-19.65,50.82,50.82,0,0,1,51.24,0,49.68,49.68,0,0,1,18.21,19.65q6.77,12.74,6.77,29.82t-6.77,29.81a49.64,49.64,0,0,1-18.21,19.66,50.82,50.82,0,0,1-51.24,0,49.57,49.57,0,0,1-18.21-19.66Q1142.09,135,1142.1,118T1148.87,88.14Z"/><polygon points="0 5.16 0 64.13 46.34 64.13 46.34 211.71 122.4 211.71 122.4 64.13 188.47 64.13 188.47 5.16 0 5.16"/></g></g></svg>